HIERARCHY
ROOT Pelvis
{
	OFFSET 0.000000 0.000000 0.000000
	CHANNELS 6 Xposition Yposition Zposition Xrotation Yrotation Zrotation
	JOINT LeftUpLeg_virtual
	{
		OFFSET 0.000000 0.000000 0.000000
		CHANNELS 3 Xrotation Yrotation Zrotation
		JOINT LeftUpLeg
		{
			OFFSET 18.735201 -5.666702 -4.541200
			CHANNELS 3 Xrotation Yrotation Zrotation
			JOINT LeftLeg
			{
				OFFSET -0.021200 -31.938179 0.493100
				CHANNELS 3 Xrotation Yrotation Zrotation
				JOINT LeftFoot
				{
					OFFSET 0.021200 -31.938179 -4.336299
					CHANNELS 3 Xrotation Yrotation Zrotation
					JOINT LeftToeBase
					{
						OFFSET 0.943001 -26.722000 15.023500
						CHANNELS 3 Xrotation Yrotation Zrotation
						End Site
						{
							OFFSET 0 0 0
						}
					}
				}
			}
		}
	}
	JOINT RightUpLeg_virtual
	{
		OFFSET 0.000000 0.000000 0.000000
		CHANNELS 3 Xrotation Yrotation Zrotation
		JOINT RightUpLeg
		{
			OFFSET -18.735201 -5.666702 -4.541200
			CHANNELS 3 Xrotation Yrotation Zrotation
			JOINT RightLeg
			{
				OFFSET 0.018946 -31.938133 0.493100
				CHANNELS 3 Xrotation Yrotation Zrotation
				JOINT RightFoot
				{
					OFFSET -0.018946 -31.938126 -4.336299
					CHANNELS 3 Xrotation Yrotation Zrotation
					JOINT RightToeBase
					{
						OFFSET -0.943001 -26.722004 15.023500
						CHANNELS 3 Xrotation Yrotation Zrotation
						End Site
						{
							OFFSET 0 0 0
						}
					}
				}
			}
		}
	}
	JOINT Hips_virtual
	{
		OFFSET 0.000000 0.000000 0.000000
		CHANNELS 3 Xrotation Yrotation Zrotation
		JOINT Hips
		{
			OFFSET -0.000000 -0.000000 -0.000000
			CHANNELS 3 Xrotation Yrotation Zrotation
			JOINT Spine
			{
				OFFSET 0.000000 10.199997 -0.299500
				CHANNELS 3 Xrotation Yrotation Zrotation
				JOINT Spine1
				{
					OFFSET 0.000000 11.900002 -1.516600
					CHANNELS 3 Xrotation Yrotation Zrotation
					JOINT Spine2
					{
						OFFSET 0.000000 13.600006 -2.842500
						CHANNELS 3 Xrotation Yrotation Zrotation
						JOINT Neck_virtual
						{
							OFFSET 0.000000 0.000000 0.000000
							CHANNELS 3 Xrotation Yrotation Zrotation
							JOINT Neck
							{
								OFFSET 0.000000 9.624100 -2.890100
								CHANNELS 3 Xrotation Yrotation Zrotation
								JOINT Head
								{
									OFFSET 0.000000 14.068802 -1.351900
									CHANNELS 3 Xrotation Yrotation Zrotation
									End Site
									{
										OFFSET 0 0 0
									}
								}
							}
						}
						JOINT LeftShoulder_virtual
						{
							OFFSET 0.000000 0.000000 0.000000
							CHANNELS 3 Xrotation Yrotation Zrotation
							JOINT LeftShoulder
							{
								OFFSET 15.263000 10.923401 -0.547700
								CHANNELS 3 Xrotation Yrotation Zrotation
								JOINT LeftArm
								{
									OFFSET 25.438599 -2.830597 -13.032500
									CHANNELS 3 Xrotation Yrotation Zrotation
									JOINT LeftForeArm
									{
										OFFSET 29.960503 0.000000 0.000000
										CHANNELS 3 Xrotation Yrotation Zrotation
										JOINT LeftHand
										{
											OFFSET 27.849251 0.000000 0.000000
											CHANNELS 3 Xrotation Yrotation Zrotation
											End Site
											{
												OFFSET 0 0 0
											}
										}
									}
								}
							}
						}
						JOINT RightShoulder_virtual
						{
							OFFSET 0.000000 0.000000 0.000000
							CHANNELS 3 Xrotation Yrotation Zrotation
							JOINT RightShoulder
							{
								OFFSET -15.263000 10.923401 -0.547700
								CHANNELS 3 Xrotation Yrotation Zrotation
								JOINT RightArm
								{
									OFFSET -25.438599 -2.830597 -13.032500
									CHANNELS 3 Xrotation Yrotation Zrotation
									JOINT RightForeArm
									{
										OFFSET -29.960503 0.000000 0.000000
										CHANNELS 3 Xrotation Yrotation Zrotation
										JOINT RightHand
										{
											OFFSET -27.849251 0.000000 0.000000
											CHANNELS 3 Xrotation Yrotation Zrotation
											End Site
											{
												OFFSET 0 0 0
											}
										}
									}
								}
							}
						}
					}
				}
			}
		}
	}
}
MOTION
Frames: 13
Frame Time: 0.03333333
-67.336037 26.768864 9.951446 0.000000 0.000000 0.000000 -42.721843 34.427152 57.797532 -68.182145 -8.077115 56.335124 54.491311 2.608707 -1.685206 -0.812319 3.129893 -6.462831 0.000000 0.000000 0.000000 -38.185918 13.406706 55.648379 -67.889813 -16.929128 22.810100 91.878660 8.639240 1.464334 21.362438 7.786461 23.580555 0.000000 0.000000 0.000000 -10.393548 2.765158 17.076791 -52.604399 5.529068 73.784771 22.280077 -0.875591 -3.874068 10.719284 -0.316290 -1.327227 0.000000 0.000000 0.000000 18.890947 0.609296 -4.118673 8.550588 1.878854 -2.272373 0.000000 0.000000 0.000000 15.165914 1.290810 -2.068142 4.490909 2.241219 -8.702313 22.763378 -2.779388 -1.964482 25.469953 -22.256031 12.195375 0.000000 0.000000 0.000000 12.992092 0.746351 -1.307308 8.676412 11.703619 -16.206005 18.060675 3.068952 -4.492489 13.506428 46.651787 -13.845191 0.000000 0.000000 0.000000 
-69.077171 24.764141 10.106637 0.000000 0.000000 0.000000 -43.756903 33.609793 59.356851 -68.701444 -8.976830 57.034542 55.155410 4.520389 -1.305941 0.232161 4.806587 -4.472541 0.000000 0.000000 0.000000 -40.313419 14.361637 58.448142 -68.925140 -17.313829 23.729383 89.486919 6.535481 1.522331 20.718745 5.607351 21.192185 0.000000 0.000000 0.000000 -11.517536 1.055363 17.699641 -54.010301 3.964933 76.086210 22.163103 -1.488269 -3.093947 10.396470 -0.637197 -0.776400 0.000000 0.000000 0.000000 18.445143 0.027376 -3.648817 8.440829 1.533421 -2.136693 0.000000 0.000000 0.000000 14.757423 0.981318 -1.774371 4.386493 1.897824 -8.839028 23.343560 -3.806593 -1.972503 26.780149 -23.706222 12.981747 0.000000 0.000000 0.000000 12.515504 0.305631 -0.899423 8.220134 10.949856 -14.959916 21.619634 1.915573 -4.105510 14.838909 44.873889 -14.498670 0.000000 0.000000 0.000000 
-70.819122 22.997219 10.253966 0.000000 0.000000 0.000000 -44.668744 32.880715 60.755707 -69.148125 -9.770321 57.657800 55.945164 6.616906 -1.135725 1.387058 6.833435 -2.598026 0.000000 0.000000 0.000000 -42.214428 15.239103 60.918423 -69.802382 -17.572077 24.403393 87.110443 4.498676 1.560529 19.973058 3.464632 18.931290 0.000000 0.000000 0.000000 -12.669012 -0.437765 18.204824 -55.360008 2.748173 77.986349 21.858634 -1.875041 -2.277498 9.955427 -0.837536 -0.192844 0.000000 0.000000 0.000000 17.676915 -0.507389 -3.078879 8.167445 1.196545 -1.938208 0.000000 0.000000 0.000000 14.094363 0.735697 -1.455223 4.090815 1.711218 -8.802580 22.575537 -4.614829 -1.864557 27.549699 -25.081121 13.767864 0.000000 0.000000 0.000000 11.899765 -0.040769 -0.490526 7.690088 10.499147 -13.614772 23.870922 1.419045 -2.937377 15.560334 43.618920 -14.631857 0.000000 0.000000 0.000000 
-72.600571 21.497417 10.373319 0.000000 0.000000 0.000000 -45.484596 32.273819 62.001609 -69.528573 -10.448547 58.203040 56.855444 8.712049 -1.158977 2.635509 9.027954 -0.960156 0.000000 0.000000 0.000000 -43.882804 16.094917 62.985996 -70.536470 -17.674300 24.818968 84.766473 2.606374 1.616831 19.143608 1.426526 16.925342 0.000000 0.000000 0.000000 -13.850957 -1.645280 18.593556 -56.759664 1.940922 79.522957 21.372932 -2.047936 -1.448524 9.406615 -0.923875 0.407798 0.000000 0.000000 0.000000 16.587966 -0.993542 -2.427710 7.729720 0.874887 -1.684807 0.000000 0.000000 0.000000 13.211344 0.546232 -1.105345 3.627278 1.659239 -8.542408 20.453459 -5.128353 -1.481794 27.685260 -26.268165 14.547377 0.000000 0.000000 0.000000 11.187204 -0.309402 -0.085859 7.113424 10.283592 -12.198443 24.855403 1.450770 -1.069703 15.708820 42.786590 -14.287362 0.000000 0.000000 0.000000 
-74.463303 20.278284 10.438935 0.000000 0.000000 0.000000 -46.260858 31.798260 63.114445 -69.878053 -11.020864 58.662002 57.873129 10.643466 -1.352040 3.955976 11.210167 0.340022 0.000000 0.000000 0.000000 -45.325159 16.960435 64.590736 -71.159732 -17.603590 24.964929 82.460409 0.909706 1.726161 18.246869 -0.463953 15.268623 0.000000 0.000000 0.000000 -15.057575 -2.539586 18.871265 -58.285966 1.549962 80.724606 20.725587 -2.041695 -0.630801 8.768046 -0.914384 1.008180 0.000000 0.000000 0.000000 15.219036 -1.430318 -1.721987 7.146652 0.575523 -1.388994 0.000000 0.000000 0.000000 12.172960 0.402720 -0.720848 3.044167 1.709020 -8.018759 17.274819 -5.311097 -0.633357 27.230516 -27.133335 15.341701 0.000000 0.000000 0.000000 10.414003 -0.521775 0.308014 6.510317 10.218312 -10.747391 24.618838 1.802962 1.406094 15.306956 42.224400 -13.499457 0.000000 0.000000 0.000000 
-76.434319 19.338434 10.426991 0.000000 0.000000 0.000000 -47.083844 31.454438 64.133366 -70.251556 -11.507615 59.024657 58.968643 12.288245 -1.684470 5.313524 13.219229 1.230531 0.000000 0.000000 0.000000 -46.559620 17.843017 65.700758 -71.714691 -17.358325 24.839223 80.189201 -0.571893 1.911262 17.294264 -2.190730 14.006101 0.000000 0.000000 0.000000 -16.276679 -3.138996 19.047661 -59.967476 1.522649 81.603569 19.945696 -1.908415 0.153432 8.062529 -0.836117 1.590794 0.000000 0.000000 0.000000 13.648413 -1.816887 -0.993042 6.456183 0.305106 -1.066368 0.000000 0.000000 0.000000 11.065220 0.293971 -0.302448 2.407557 1.820535 -7.216688 13.604915 -5.184175 0.853046 26.371478 -27.541474 16.196972 0.000000 0.000000 0.000000 9.604514 -0.699480 0.681736 5.891818 10.219715 -9.310164 23.199979 2.231576 4.376061 14.371644 41.767870 -12.308296 0.000000 0.000000 0.000000 
-78.512787 18.665421 10.322745 0.000000 0.000000 0.000000 -48.050832 31.240793 65.109311 -70.706958 -11.932063 59.283296 60.090181 13.565993 -2.117382 6.655722 14.921634 1.677296 0.000000 0.000000 0.000000 -47.617395 18.736908 66.331348 -72.242262 -16.952600 24.460398 77.949343 -1.845441 2.177736 16.294014 -3.757082 13.132159 0.000000 0.000000 0.000000 -17.492924 -3.492064 19.137772 -61.783371 1.763907 82.165673 19.067578 -1.707478 0.885499 7.314866 -0.719826 2.140048 0.000000 0.000000 0.000000 11.983106 -2.152478 -0.272141 5.710740 0.068543 -0.733219 0.000000 0.000000 0.000000 9.978895 0.209478 0.142402 1.787757 1.951868 -6.155450 10.141614 -4.807162 3.057075 25.387197 -27.386405 17.159921 0.000000 0.000000 0.000000 8.773976 -0.860333 1.023001 5.264383 10.218666 -7.947120 20.655001 2.494731 7.685085 12.935898 41.273402 -10.778085 0.000000 0.000000 0.000000 
-80.666794 18.239754 10.124905 0.000000 0.000000 0.000000 -49.237789 31.147162 66.086465 -71.287647 -12.315518 59.434687 61.163374 14.433779 -2.600601 7.914752 16.214582 1.691828 0.000000 0.000000 0.000000 -48.543725 19.636235 66.554279 -72.770946 -16.413899 23.874482 75.745439 -2.932835 2.514538 15.256500 -5.174021 12.601901 0.000000 0.000000 0.000000 -18.690142 -3.650413 19.163486 -63.676467 2.165448 82.430780 18.128493 -1.493731 1.552045 6.550461 -0.593877 2.644092 0.000000 0.000000 0.000000 10.344183 -2.437438 0.413921 4.969857 -0.132404 -0.404191 0.000000 0.000000 0.000000 8.989080 0.140621 0.599058 1.242492 2.064183 -4.890360 7.508149 -4.230129 5.909426 24.552893 -26.623579 18.238883 0.000000 0.000000 0.000000 7.935915 -1.016376 1.317998 4.636959 10.166115 -6.725178 17.096423 2.389471 11.125458 11.068481 40.637447 -9.007426 0.000000 0.000000 0.000000 
-82.839516 18.037132 9.845765 0.000000 0.000000 0.000000 -50.670872 31.144628 67.084540 -72.011128 -12.675898 59.480825 62.098400 14.879818 -3.072667 9.014691 17.029233 1.333923 0.000000 0.000000 0.000000 -49.393753 20.542743 66.488190 -73.312320 -15.778205 23.150603 73.594510 -3.859466 2.898607 14.198589 -6.450942 12.347872 0.000000 0.000000 0.000000 -19.851906 -3.645859 19.153596 -65.571804 2.633152 82.449966 17.168591 -1.307933 2.145455 5.795381 -0.479317 3.095538 0.000000 0.000000 0.000000 8.848578 -2.674619 1.045406 4.291028 -0.300017 -0.090780 0.000000 0.000000 0.000000 8.138094 0.080904 1.046835 0.802544 2.124411 -3.507386 6.057878 -3.463490 9.186248 24.039464 -25.295051 19.374655 0.000000 0.000000 0.000000 7.108842 -1.173720 1.553888 4.025718 10.032300 -5.708966 12.716375 1.787609 14.445119 8.878439 39.802637 -7.123825 0.000000 0.000000 0.000000 
-84.960495 18.028540 9.507296 0.000000 0.000000 0.000000 -52.317227 31.186412 68.093994 -72.866466 -13.026946 59.429940 62.804587 14.919823 -3.466833 9.882659 17.335789 0.705091 0.000000 0.000000 0.000000 -50.223088 21.465333 66.272260 -73.863312 -15.083745 22.366667 71.524143 -4.647662 3.301130 13.143948 -7.592154 12.294933 0.000000 0.000000 0.000000 -20.960674 -3.483932 19.140313 -67.392971 3.102389 82.306238 16.230852 -1.172455 2.662374 5.076560 -0.387626 3.490714 0.000000 0.000000 0.000000 7.590306 -2.870256 1.610309 3.720299 -0.440580 0.199313 0.000000 0.000000 0.000000 7.428515 0.025473 1.461372 0.465591 2.105590 -2.112099 5.782859 -2.503160 12.554654 23.864812 -23.536687 20.447165 0.000000 0.000000 0.000000 6.318597 -1.333590 1.721271 3.453978 9.802535 -4.951471 7.775302 0.662037 17.381324 6.501833 38.753435 -5.263824 0.000000 0.000000 0.000000 
-86.957649 18.179190 9.134705 0.000000 0.000000 0.000000 -54.099637 31.224049 69.087521 -73.819175 -13.376434 59.298466 63.209999 14.595001 -3.722657 10.462791 17.147620 -0.068650 0.000000 0.000000 0.000000 -51.076353 22.413879 66.035300 -74.412254 -14.365396 21.592642 69.566132 -5.315642 3.693444 12.119596 -8.598914 12.370396 0.000000 0.000000 0.000000 -21.997066 -3.154431 19.152679 -69.072146 3.539288 82.096893 15.358915 -1.092644 3.100931 4.420678 -0.321341 3.827931 0.000000 0.000000 0.000000 6.624856 -3.033740 2.104071 3.284534 -0.563301 0.462379 0.000000 0.000000 0.000000 6.829245 -0.029260 1.817870 0.200884 1.987038 -0.814704 6.364285 -1.387921 15.651802 23.918011 -21.557614 21.317413 0.000000 0.000000 0.000000 5.595994 -1.493840 1.815722 2.947988 9.472672 -4.487045 2.561162 -0.910230 19.710999 4.078928 37.506379 -3.548420 0.000000 0.000000 0.000000 
-88.767807 18.448099 8.750145 0.000000 0.000000 0.000000 -55.925968 31.229865 70.041240 -74.819183 -13.723300 59.112719 63.279893 13.968445 -3.798793 10.729930 16.520155 -0.860720 0.000000 0.000000 0.000000 -51.978044 23.391450 65.872270 -74.944415 -13.651385 20.879270 67.749848 -5.879722 4.051719 11.151068 -9.474074 12.510147 0.000000 0.000000 0.000000 -22.940449 -2.649411 19.209810 -70.555226 3.932793 81.907751 14.591929 -1.061803 3.458268 3.851297 -0.276564 4.105825 0.000000 0.000000 0.000000 5.960839 -3.176241 2.529073 2.987471 -0.678481 0.698762 0.000000 0.000000 0.000000 6.291879 -0.085157 2.094977 -0.037332 1.756621 0.287325 7.326544 -0.226735 18.174674 24.028626 -19.589918 21.876853 0.000000 0.000000 0.000000 4.971586 -1.650381 1.838144 2.531003 9.045954 -4.328008 -2.658131 -2.774593 21.295903 1.732717 36.098294 -2.064138 0.000000 0.000000 0.000000 
-90.345909 18.789703 8.368921 0.000000 0.000000 0.000000 -57.716601 31.210338 70.951616 -75.809117 -14.056418 58.908087 63.026554 13.117798 -3.681287 10.697713 15.541766 -1.566933 0.000000 0.000000 0.000000 -52.928157 24.388326 65.834786 -75.445170 -12.963320 20.255418 66.097667 -6.356665 4.360418 10.258372 -10.226051 12.663260 0.000000 0.000000 0.000000 -23.771017 -1.976896 19.317394 -71.804583 4.284067 81.793530 13.958169 -1.066925 3.729957 3.385094 -0.245945 4.322778 0.000000 0.000000 0.000000 5.561972 -3.308473 2.893784 2.810983 -0.795434 0.912562 0.000000 0.000000 0.000000 5.770534 -0.141147 2.278745 -0.293436 1.414994 1.126183 8.210120 0.836670 19.947848 24.036470 -17.824782 22.075726 0.000000 0.000000 0.000000 4.469938 -1.798299 1.794156 2.218051 8.531734 -4.464578 -7.668275 -4.745708 22.102637 -0.444850 34.575176 -0.854982 0.000000 0.000000 0.000000 
